<svg width="52" height="52" viewBox="0 0 52 52" fill="none" xmlns="http://www.w3.org/2000/svg">
<rect width="52" height="52" rx="26" fill="#569DDF"/>
<g filter="url(#filter0_d_121_686)">
<path d="M8 25.5C8 24.3065 8.47801 23.1619 9.32887 22.318C10.1797 21.4741 11.3337 21 12.537 21C13.7403 21 14.8943 21.4741 15.7452 22.318C16.5961 23.1619 17.0741 24.3065 17.0741 25.5C17.0741 26.6935 16.5961 27.8381 15.7452 28.682C14.8943 29.5259 13.7403 30 12.537 30C11.3337 30 10.1797 29.5259 9.32887 28.682C8.47801 27.8381 8 26.6935 8 25.5ZM20.963 25.5C20.963 24.3065 21.441 23.1619 22.2918 22.318C23.1427 21.4741 24.2967 21 25.5 21C26.7033 21 27.8573 21.4741 28.7082 22.318C29.559 23.1619 30.037 24.3065 30.037 25.5C30.037 26.6935 29.559 27.8381 28.7082 28.682C27.8573 29.5259 26.7033 30 25.5 30C24.2967 30 23.1427 29.5259 22.2918 28.682C21.441 27.8381 20.963 26.6935 20.963 25.5ZM38.463 21C39.6663 21 40.8203 21.4741 41.6711 22.318C42.522 23.1619 43 24.3065 43 25.5C43 26.6935 42.522 27.8381 41.6711 28.682C40.8203 29.5259 39.6663 30 38.463 30C37.2597 30 36.1057 29.5259 35.2548 28.682C34.4039 27.8381 33.9259 26.6935 33.9259 25.5C33.9259 24.3065 34.4039 23.1619 35.2548 22.318C36.1057 21.4741 37.2597 21 38.463 21Z" fill="#414245"/>
</g>
<defs>
<filter id="filter0_d_121_686" x="5" y="18" width="43" height="17" filterUnits="userSpaceOnUse" color-interpolation-filters="sRGB">
<feFlood flood-opacity="0" result="BackgroundImageFix"/>
<feColorMatrix in="SourceAlpha" type="matrix" values="0 0 0 0 0 0 0 0 0 0 0 0 0 0 0 0 0 0 127 0" result="hardAlpha"/>
<feOffset dx="1" dy="1"/>
<feGaussianBlur stdDeviation="2"/>
<feComposite in2="hardAlpha" operator="out"/>
<feColorMatrix type="matrix" values="0 0 0 0 0 0 0 0 0 0 0 0 0 0 0 0 0 0 0.08 0"/>
<feBlend mode="normal" in2="BackgroundImageFix" result="effect1_dropShadow_121_686"/>
<feBlend mode="normal" in="SourceGraphic" in2="effect1_dropShadow_121_686" result="shape"/>
</filter>
</defs>
</svg>
